<?xml version="1.0" encoding="UTF-8" standalone="no"?>
<svg
   width="20"
   height="21"
   viewBox="0 0 20 21"
   fill="none"
   version="1.1"
   id="svg4921"
   sodipodi:docname="clarity_eye-hide-line.svg"
   inkscape:version="1.2.1 (9c6d41e410, 2022-07-14)"
   xmlns:inkscape="http://www.inkscape.org/namespaces/inkscape"
   xmlns:sodipodi="http://sodipodi.sourceforge.net/DTD/sodipodi-0.dtd"
   xmlns="http://www.w3.org/2000/svg"
   xmlns:svg="http://www.w3.org/2000/svg">
  <sodipodi:namedview
     id="namedview4923"
     pagecolor="#ffffff"
     bordercolor="#000000"
     borderopacity="0.25"
     inkscape:showpageshadow="2"
     inkscape:pageopacity="0.0"
     inkscape:pagecheckerboard="0"
     inkscape:deskcolor="#d1d1d1"
     showgrid="false"
     inkscape:zoom="40"
     inkscape:cx="7.125"
     inkscape:cy="10.5125"
     inkscape:window-width="1920"
     inkscape:window-height="1001"
     inkscape:window-x="-9"
     inkscape:window-y="-9"
     inkscape:window-maximized="1"
     inkscape:current-layer="svg4921" />
  <g
     clip-path="url(#clip0_1_1301)"
     id="g4914"
     transform="matrix(1.0251553,0,0,1.0251553,-0.03326029,-0.06181428)"
     style="fill:#ffffff;fill-opacity:1">
    <path
       d="m 13.9944,11.4073 c 0.1596,-0.4264 0.2405,-0.8781 0.2389,-1.3333 0,-1.0108 -0.4015,-1.98017 -1.1162,-2.69489 C 12.4023,6.66439 11.433,6.26286 10.4222,6.26286 9.97258,6.26339 9.52667,6.34429 9.10553,6.50175 L 9.99997,7.42397 C 10.1359,7.40222 10.2734,7.39108 10.4111,7.39064 11.1258,7.38915 11.812,7.6705 12.32,8.17325 c 0.5079,0.50275 0.7963,1.18606 0.8022,1.90075 -5e-4,0.1377 -0.0116,0.2751 -0.0333,0.4111 z"
       fill="#7b7b8b"
       id="path4908"
       style="fill:#ffffff;fill-opacity:1" />
    <path
       d="M 19.05,9.81286 C 17.1778,6.35175 13.8944,4.25731 10.2611,4.25731 9.27184,4.25963 8.28923,4.41902 7.34998,4.72953 l 0.89444,0.9 C 8.90323,5.45927 9.58064,5.37156 10.2611,5.36842 c 3.1278,0 5.9722,1.74444 7.6667,4.68338 -0.6216,1.0903 -1.4456,2.0519 -2.4278,2.8333 l 0.7889,0.7889 c 1.1367,-0.9171 2.0807,-2.0499 2.7777,-3.3334 l 0.1445,-0.2666 z"
       fill="#7b7b8b"
       id="path4910"
       style="fill:#ffffff;fill-opacity:1" />
    <path
       d="m 2.70554,3.28508 2.47778,2.47778 c -1.56616,1.0084 -2.84617,2.40321 -3.71667,4.05 L 1.3222,10.074 1.46665,10.3406 c 1.87222,3.4611 5.15555,5.5556 8.78885,5.5556 1.4182,-3e-4 2.8179,-0.3213 4.0945,-0.9389 L 17.1278,17.7351 18.1,16.9017 3.65554,2.45731 Z m 5.41666,5.41667 3.6944,3.69445 c -0.4174,0.2584 -0.8979,0.3968 -1.3888,0.4 -0.3567,0 -0.70993,-0.0705 -1.03927,-0.2075 C 9.05918,12.4517 8.76018,12.2509 8.50873,11.9979 8.25727,11.7449 8.05833,11.4446 7.92335,11.1145 7.78837,10.7843 7.72001,10.4307 7.7222,10.074 7.72846,9.58873 7.86674,9.11435 8.1222,8.70175 Z M 7.31665,7.89619 c -0.51976,0.733 -0.76338,1.62628 -0.68771,2.52171 0.07566,0.8953 0.46571,1.7351 1.1011,2.3705 0.63539,0.6353 1.47512,1.0254 2.37046,1.1011 0.8954,0.0756 1.7887,-0.168 2.5217,-0.6878 l 0.8889,0.8889 c -1.029,0.4399 -2.1365,0.6667 -3.2556,0.6667 -3.12774,0 -5.97218,-1.7444 -7.66663,-4.6833 0.81317,-1.43991 1.98429,-2.64547 3.4,-3.50003 z"
       fill="#7b7b8b"
       id="path4912"
       style="fill:#ffffff;fill-opacity:1" />
  </g>
  <defs
     id="defs4919">
    <clipPath
       id="clip0_1_1301">
      <rect
         width="20"
         height="20"
         fill="white"
         transform="translate(0 0.0739746)"
         id="rect4916" />
    </clipPath>
  </defs>
</svg>
