<?xml version="1.0" encoding="UTF-8" standalone="no"?>
<svg
   width="20"
   height="21"
   viewBox="0 0 20 21"
   fill="none"
   version="1.1"
   id="svg208"
   sodipodi:docname="eye_open_icon.svg"
   inkscape:version="1.2.1 (9c6d41e410, 2022-07-14)"
   xmlns:inkscape="http://www.inkscape.org/namespaces/inkscape"
   xmlns:sodipodi="http://sodipodi.sourceforge.net/DTD/sodipodi-0.dtd"
   xmlns="http://www.w3.org/2000/svg"
   xmlns:svg="http://www.w3.org/2000/svg">
  <sodipodi:namedview
     id="namedview210"
     pagecolor="#ffffff"
     bordercolor="#000000"
     borderopacity="0.25"
     inkscape:showpageshadow="2"
     inkscape:pageopacity="0.0"
     inkscape:pagecheckerboard="0"
     inkscape:deskcolor="#d1d1d1"
     showgrid="false"
     inkscape:zoom="38.619048"
     inkscape:cx="9.878545"
     inkscape:cy="10.5"
     inkscape:window-width="1920"
     inkscape:window-height="1001"
     inkscape:window-x="-9"
     inkscape:window-y="-9"
     inkscape:window-maximized="1"
     inkscape:current-layer="svg208" />
  <g
     clip-path="url(#clip0_1_742)"
     id="g201"
     style="fill:#ffffff;fill-opacity:1"
     transform="matrix(1.0811603,0,0,1.1156885,-0.80258486,-1.1657648)">
    <path
       d="M 18.6778,9.81286 C 16.8056,6.35175 13.5222,4.25731 9.8889,4.25731 c -3.63333,0 -6.92222,2.09444 -8.77778,5.55555 L 0.955566,10.074 1.10001,10.3406 c 1.87222,3.4612 5.15556,5.5556 8.78889,5.5556 3.6333,0 6.9222,-2.0667 8.7889,-5.5556 L 18.8222,10.074 Z M 9.8889,14.7573 c -3.12778,0 -6,-1.7444 -7.66667,-4.6833 C 3.8889,7.13509 6.76112,5.39064 9.8889,5.39064 c 3.1278,0 5.9667,1.75 7.6611,4.68336 -1.6944,2.9389 -4.5389,4.6833 -7.6611,4.6833 z"
       fill="#7B7B8B"
       id="path197"
       style="fill:#ffffff;fill-opacity:1" />
    <path
       d="M 10.05,6.27954 C 9.29672,6.28503 8.56198,6.51364 7.93856,6.93647 7.31514,7.3593 6.83101,7.9574 6.54731,8.65523 6.26361,9.35305 6.19307,10.1193 6.3446,10.8572 c 0.15153,0.7379 0.51833,1.4143 1.05408,1.9439 0.53575,0.5295 1.21641,0.8884 1.95601,1.0313 0.73961,0.143 1.50501,0.0635 2.19941,-0.2283 0.6945,-0.2918 1.2869,-0.7829 1.7025,-1.4112 0.4155,-0.6283 0.6356,-1.3656 0.6323,-2.1189 C 13.8867,9.57256 13.7856,9.07649 13.5914,8.61421 13.3971,8.15193 13.1136,7.73253 12.7569,7.38004 12.4003,7.02754 11.9776,6.74889 11.5131,6.56005 11.0486,6.3712 10.5514,6.27588 10.05,6.27954 Z m 0,6.51106 C 9.51791,12.7852 8.99931,12.6226 8.55933,12.3233 8.11935,12.0241 7.77761,11.6015 7.57702,11.1086 7.37643,10.6158 7.32594,10.0746 7.43189,9.55317 7.53784,9.03172 7.79551,8.5532 8.17253,8.17771 8.54956,7.80222 9.02913,7.54651 9.55101,7.44268 10.0729,7.33886 10.6138,7.39156 11.1058,7.59416 c 0.4921,0.2026 0.9133,0.54607 1.2107,0.98727 0.2975,0.44119 0.458,0.96045 0.4613,1.49257 0.0015,0.3581 -0.0682,0.7129 -0.2049,1.0439 -0.1367,0.331 -0.3377,0.6316 -0.5915,0.8843 -0.2537,0.2527 -0.5551,0.4525 -0.8866,0.5879 -0.3316,0.1353 -0.6867,0.2035 -1.0448,0.2005 z"
       fill="#7B7B8B"
       id="path199"
       style="fill:#ffffff;fill-opacity:1" />
  </g>
  <defs
     id="defs206">
    <clipPath
       id="clip0_1_742">
      <rect
         width="20"
         height="20"
         fill="white"
         transform="translate(0 0.0739746)"
         id="rect203" />
    </clipPath>
  </defs>
</svg>
