<?xml version="1.0" encoding="UTF-8" standalone="no"?>
<!-- Created with Inkscape (http://www.inkscape.org/) -->

<svg
   version="1.1"
   id="svg18396"
   width="566.36188"
   height="459.94302"
   viewBox="0 0 566.36188 459.94302"
   sodipodi:docname="evil_shopkeeper.svg"
   inkscape:version="1.2.1 (9c6d41e410, 2022-07-14)"
   xmlns:inkscape="http://www.inkscape.org/namespaces/inkscape"
   xmlns:sodipodi="http://sodipodi.sourceforge.net/DTD/sodipodi-0.dtd"
   xmlns:xlink="http://www.w3.org/1999/xlink"
   xmlns="http://www.w3.org/2000/svg"
   xmlns:svg="http://www.w3.org/2000/svg">
  <defs
     id="defs18400">
    <linearGradient
       inkscape:collect="always"
       id="linearGradient21988">
      <stop
         style="stop-color:#ffd21a;stop-opacity:1;"
         offset="0"
         id="stop21984" />
      <stop
         style="stop-color:#c6a000;stop-opacity:0.53177255;"
         offset="1"
         id="stop21986" />
    </linearGradient>
    <filter
       inkscape:collect="always"
       style="color-interpolation-filters:sRGB"
       id="filter21953"
       x="-0.089683367"
       y="-0.090663515"
       width="1.1793667"
       height="1.181327">
      <feGaussianBlur
         inkscape:collect="always"
         stdDeviation="0.33791176"
         id="feGaussianBlur21955" />
    </filter>
    <filter
       inkscape:collect="always"
       style="color-interpolation-filters:sRGB"
       id="filter21957"
       x="-0.12206802"
       y="-0.11419267"
       width="1.244136"
       height="1.2283853">
      <feGaussianBlur
         inkscape:collect="always"
         stdDeviation="0.33341124"
         id="feGaussianBlur21959" />
    </filter>
    <radialGradient
       inkscape:collect="always"
       xlink:href="#linearGradient21988"
       id="radialGradient21990"
       cx="432.11938"
       cy="152.49776"
       fx="432.11938"
       fy="152.49776"
       r="8.8490229"
       gradientTransform="matrix(1,0,0,0.99079489,0,1.4037591)"
       gradientUnits="userSpaceOnUse" />
    <radialGradient
       inkscape:collect="always"
       xlink:href="#linearGradient21988"
       id="radialGradient21990-5"
       cx="432.11938"
       cy="152.49776"
       fx="432.11938"
       fy="152.49776"
       r="8.8490229"
       gradientTransform="matrix(1,0,0,0.99079489,-85.806461,7.8902739)"
       gradientUnits="userSpaceOnUse" />
    <filter
       inkscape:collect="always"
       style="color-interpolation-filters:sRGB"
       id="filter21953-1"
       x="-0.089683367"
       y="-0.090663515"
       width="1.1793667"
       height="1.181327">
      <feGaussianBlur
         inkscape:collect="always"
         stdDeviation="0.33791176"
         id="feGaussianBlur21955-4" />
    </filter>
    <filter
       inkscape:collect="always"
       style="color-interpolation-filters:sRGB"
       id="filter21957-3"
       x="-0.12206802"
       y="-0.11419267"
       width="1.244136"
       height="1.2283853">
      <feGaussianBlur
         inkscape:collect="always"
         stdDeviation="0.33341124"
         id="feGaussianBlur21959-8" />
    </filter>
    <filter
       inkscape:collect="always"
       style="color-interpolation-filters:sRGB"
       id="filter22050"
       x="-0.17327729"
       y="-0.1349073"
       width="1.3465546"
       height="1.2698146">
      <feGaussianBlur
         inkscape:collect="always"
         stdDeviation="0.055060216"
         id="feGaussianBlur22052" />
    </filter>
    <filter
       inkscape:collect="always"
       style="color-interpolation-filters:sRGB"
       id="filter22050-9"
       x="-0.17327729"
       y="-0.1349073"
       width="1.3465546"
       height="1.2698146">
      <feGaussianBlur
         inkscape:collect="always"
         stdDeviation="0.055060216"
         id="feGaussianBlur22052-5" />
    </filter>
  </defs>
  <sodipodi:namedview
     id="namedview18398"
     pagecolor="#ffffff"
     bordercolor="#000000"
     borderopacity="0.25"
     inkscape:showpageshadow="2"
     inkscape:pageopacity="0.0"
     inkscape:pagecheckerboard="0"
     inkscape:deskcolor="#d1d1d1"
     showgrid="false"
     inkscape:zoom="0.82948718"
     inkscape:cx="-61.483771"
     inkscape:cy="103.07573"
     inkscape:window-width="1920"
     inkscape:window-height="1001"
     inkscape:window-x="-9"
     inkscape:window-y="-9"
     inkscape:window-maximized="1"
     inkscape:current-layer="g18402" />
  <g
     inkscape:groupmode="layer"
     inkscape:label="Image"
     id="g18402"
     transform="translate(-143.23458,-13.86908)">
    <g
       id="g29256"
       transform="translate(-12.055638,20.494594)">
      <path
         style="opacity:0.928395;fill:#070605;fill-opacity:1;stroke:#00000c;stroke-width:2.39;stroke-opacity:0.718085"
         d="m 158.53168,461.12828 c 0,0 16.27512,-28.93354 16.27512,-32.55023 0,-3.61669 8.43895,-47.017 7.83617,-50.03091 -0.60278,-3.01391 12.65842,-46.41422 12.65842,-46.41422 0,0 16.27512,-47.61978 18.68625,-48.22256 2.41112,-0.60279 15.06955,-25.91963 15.06955,-25.91963 l 16.8779,-16.8779 13.2612,-15.67234 12.65842,-68.71715 15.67234,-48.82535 7.83616,-19.891808 15.06956,-21.700154 9.64451,-9.644513 17.48068,-20.494591 7.83617,-6.630603 0.60278,-6.02782 17.48068,-12.055642 17.48068,-2.4111279 27.12519,1.8083459 22.30294,9.644513 14.46677,13.261206 14.46677,22.905719 4.21947,12.055641 22.90572,34.358574 18.68625,48.22257 c 0,0 25.91962,13.26121 28.33075,13.26121 2.41113,0 21.09738,17.48068 21.09738,17.48068 l 24.11128,32.55023 5.42504,7.83616 18.08346,12.65843 28.93354,32.55023 10.85008,31.34467 9.04173,37.37249 7.23338,42.19474 6.02782,17.48068 30.13911,37.37249 24.71406,31.34467 z"
         id="path18468" />
      <path
         style="opacity:0.891358;fill:#d1956f;fill-opacity:1;stroke:#00000c;stroke-width:2.39;stroke-opacity:0.718085"
         d="m 334.04049,99.088066 -5.96724,4.688544 -9.37709,7.67216 -5.55087,8.20347 -3.01392,3.91809 -1.65765,2.86321 -1.20556,2.56182 -0.75348,4.21948 -0.90417,3.3153 -0.1507,12.50773 c 0,0 -1.20556,8.28825 -1.20556,9.19243 0,0.90417 0.30139,5.27434 0.30139,5.27434 0,0 0,3.01391 0.60278,3.466 0.60278,0.45208 1.05487,2.56182 1.05487,2.56182 v 1.20556 l -2.10974,1.65765 -1.50695,2.86322 -0.1507,2.41113 v 1.35626 c 0,0 0,1.35626 0,1.95904 0,0.60278 -1.95904,1.20556 -2.71252,1.95904 -0.75347,0.75348 -1.65765,3.01391 -1.95904,3.76739 -0.30139,0.75348 -1.35626,7.08269 -1.35626,7.08269 l -0.45208,3.91808 -0.30139,3.91808 1.05486,3.01391 0.90418,3.466 2.26043,4.97295 4.67156,3.76739 8.43895,5.57574 2.10974,18.53554 2.41113,9.34313 3.3153,9.64451 5.27434,6.02782 6.17852,3.91808 14.46677,2.10974 9.64451,1.65765 9.79521,3.3153 6.93199,2.71252 1.65765,5.87713 3.466,4.37017 5.42504,3.61669 c 0,0 5.57573,1.65765 6.17851,1.65765 0.60279,0 7.08269,-0.90417 7.08269,-0.90417 l 9.79521,-4.67156 7.53478,-8.28826 v -2.26043 l 3.01391,-0.90417 4.21947,-4.52087 5.57574,-3.46599 6.6306,-1.05487 9.9459,-3.76739 7.53478,-5.57574 8.13756,-6.6306 5.57573,-8.13756 4.21948,-14.91885 3.76738,-16.27512 1.05487,-2.71252 4.97295,-6.6306 3.91809,-7.08269 1.80834,-9.64451 -0.90417,-4.97296 -2.26043,-2.41112 -3.61669,-0.30139 1.65765,-7.08269 -2.41113,-2.41113 2.71252,-8.58965 0.75348,-3.76738 c 0,0 -14.31608,-25.91963 -14.46677,-26.67311 -0.1507,-0.75348 -8.58965,-12.20634 -8.58965,-12.20634 l -10.0966,-11.45286 -10.24729,-12.959813 -11.45286,-8.891036 -13.4119,-4.972952 -15.37095,-1.054869 -12.80912,0.602782 -16.87789,1.959042 -15.37095,4.972952 -11.15146,5.123648 z"
         id="path18460" />
      <path
         style="opacity:0.928395;fill:#b0b0b0;fill-opacity:1;stroke:#00000c;stroke-width:2.39;stroke-opacity:0.718085"
         d="m 449.37403,261.30603 -0.60278,18.68624 -5.12365,29.83771 -9.34312,32.55024 c 0,0 -3.01391,10.24729 -2.10973,12.35703 0.90417,2.10974 1.50695,8.13756 1.50695,8.13756 l 4.52087,14.16538 -1.20557,-22.00155 3.91809,-14.76816 4.21947,-15.97373 4.82226,-8.13755 -6.32922,68.71715 1.20557,19.89181 2.41113,24.11128 c 0,0 1.20556,34.96136 1.20556,32.55024 0,-2.41113 9.04173,-42.19475 9.04173,-42.19475 l 3.01391,-31.04328 -1.20556,34.96136 2.71252,38.87945 7.83616,0.30139 7.23339,-44.60587 -0.90417,-28.63215 1.50695,-14.46677 3.3153,27.42658 3.01391,19.28903 -2.10973,11.45286 18.68624,-89.51314 -1.80835,-49.12674 -3.3153,-55.75734 -4.52086,-37.97527 -4.82226,-25.31685 -5.12365,-17.17929 -3.3153,9.94591 2.41113,3.61669 -2.41113,7.53478 4.52087,-0.3014 2.71252,6.02782 -1.80835,8.43895 -4.52087,10.85008 -6.02782,7.83617 -6.6306,31.04327 -6.93199,10.54869 z"
         id="path18462" />
      <path
         style="opacity:0.802469;fill:#43151d;fill-opacity:0.994667;stroke:#00000c;stroke-width:1.611;stroke-dasharray:none;stroke-opacity:0.718085"
         d="m 334.59156,215.88615 4.0492,9.80332 3.83608,9.37709 5.96724,4.68854 8.52463,5.96724 11.50824,1.91804 c 0,0 5.32789,-1.06558 8.0984,-1.06558 2.7705,0 6.8197,-0.42623 6.8197,-0.42623 h 3.83608 l 19.81975,-2.13116 7.45905,0.85247 13.00005,-3.40985 5.11478,-4.0492 5.54101,-6.8197 6.18035,-8.73774 2.98362,-5.11478 -0.63935,-8.52462 -5.32789,5.11477 -7.88528,4.90166 -7.67216,4.0492 -7.67216,1.06558 -7.24594,0.85246 -15.34432,1.27869 -10.65578,0.21312 -9.37709,-0.42623 -10.22955,-0.42623 -10.01644,-2.13116 -11.50824,-3.40985 -5.54101,-2.13116 z"
         id="path27966" />
      <path
         style="opacity:0.928395;fill:#a4a4a4;fill-opacity:1;stroke:#00000c;stroke-width:2.39;stroke-opacity:0.718085"
         d="m 305.00773,135.92736 -22.90572,55.45595 -4.52087,15.06955 -6.93199,19.59042 -0.60278,13.2612 -3.01391,34.65997 -6.02782,37.97527 -1.50696,21.09737 2.71252,20.1932 c 0,0 4.21948,13.5626 5.72643,12.05565 1.50696,-1.50696 -0.90417,-16.27512 -0.90417,-16.27512 l 8.13756,-49.42813 3.01391,16.57651 -2.71252,19.8918 -1.20557,22.00155 1.50696,28.33076 5.42504,34.65997 -0.30139,-31.64606 6.32921,-34.96136 12.05564,69.62133 7.53477,37.97527 h 8.13756 l 3.3153,-50.33231 8.13756,51.53787 6.02782,-31.94745 -0.90417,-34.96136 -5.12365,-38.87944 -0.60278,-20.49459 1.50695,-14.46677 10.85008,34.65997 1.20557,9.64451 2.71252,-7.83617 -6.02783,-88.60896 -4.52086,-1.50696 -7.83617,-6.02782 -1.80834,-2.71252 -6.02782,-16.5765 -3.6167,-21.09738 -12.95981,-9.64451 -3.91808,-12.80912 2.26043,-13.11051 2.86321,-5.12365 c 0,0 2.86322,-1.50695 2.56183,-2.56182 -0.30139,-1.05487 -0.45209,-5.72643 -0.45209,-5.72643 l 3.61669,-4.52086 -1.05487,-4.37017 -0.75347,-9.19243 1.35626,-8.13756 z"
         id="path18464" />
      <path
         style="opacity:0.928395;fill:#de9f76;fill-opacity:1;stroke:#00000c;stroke-width:2.39;stroke-opacity:0.718085"
         d="m 335.65714,270.86999 17.90172,21.95091 20.24598,16.19679 8.31151,4.90166 13.85252,7.88527 9.16397,-1.27869 9.16397,-7.67216 12.78694,-5.11478 17.04925,-18.11483 3.62297,-2.98362 1.49181,-26.00011 -9.5902,5.96724 -10.65579,2.55739 -8.09839,4.0492 -5.96724,5.32789 -6.18035,7.24593 -11.72136,7.03282 -9.80332,0.85246 -8.52463,-4.90166 -4.0492,-4.47543 -1.49181,-5.96724 -17.90171,-5.32789 -16.19679,-3.19673 z"
         id="path18466" />
      <path
         style="opacity:0.928395;fill:#161211;fill-opacity:0.925333;stroke:#00000c;stroke-width:2.39;stroke-opacity:0.718085"
         d="m 256.18238,227.85162 -22.90572,25.31685 -12.05564,17.48068 -6.6306,12.05564 -12.05564,30.1391 -9.64452,25.91963 -7.83616,33.15302 c 0,0 -3.6167,24.71406 -5.42504,28.33076 -1.80835,3.61669 -3.6167,21.70015 -3.6167,21.70015 l -1.20556,8.43895 -13.86399,29.53632 118.14529,1.20556 -3.61669,-22.90571 c 0,0 -15.67234,-39.78362 -15.67234,-43.40031 0,-3.6167 -6.6306,-59.67543 -6.6306,-59.67543 l -1.80835,-43.40031 4.21948,-22.90572 1.20556,-8.43895 3.01391,-18.08346 z"
         id="path18887" />
      <path
         style="opacity:0.928395;fill:#2f2925;fill-opacity:0.424;stroke:#00000c;stroke-width:2.39;stroke-opacity:0.718085"
         d="m 497.89799,463.53941 10.2473,-56.66151 2.41112,-56.66152 4.82226,-36.7697 0.60278,-68.11438 -2.41113,-45.20865 -3.61669,-34.96136 -3.61669,-11.45286 -1.20556,-1.80835 22.30293,12.05564 6.6306,3.01391 25.91963,21.70016 16.27512,22.30293 9.04173,19.28903 14.46677,45.81144 14.46677,44.60587 11.45286,53.04482 1.80835,38.57806 10.24729,36.7697 -0.60278,12.05564 1.80835,5.42504 z"
         id="path18889" />
      <path
         style="opacity:0.928395;fill:#0d0b0a;fill-opacity:0.925333;stroke:#00000c;stroke-width:2.39;stroke-opacity:0.718085"
         d="m 581.08192,217.00155 c 2.41112,1.80834 25.31684,21.09737 25.31684,21.09737 l 16.8779,19.89181 9.64451,10.85007 10.85008,34.35858 6.6306,36.16693 8.43895,38.57805 4.82226,21.70015 27.12519,31.94745 20.49459,27.1252 7.83617,5.42503 -74.74498,1.20557 -6.6306,-1.20557 -1.20556,-21.09737 -8.43895,-31.34467 -1.20557,-36.7697 c 0,0 -8.43895,-41.59196 -8.43895,-44.00309 0,-2.41113 -16.27511,-48.82535 -16.27511,-48.82535 l -10.2473,-36.16692 z"
         id="path18891" />
      <path
         style="opacity:1;fill:#000000;fill-opacity:1;stroke:none;stroke-width:2.39;stroke-opacity:0.718085"
         d="m 306.56686,133.19728 2.45083,-3.40985 2.13115,-2.87706 c 0,0 4.15576,-2.66395 4.58199,-3.09018 0.42623,-0.42623 3.62296,-2.66395 3.62296,-2.66395 l 5.3279,-1.49181 h 4.26231 l 5.32789,1.17214 c 0,0 5.11478,2.66395 5.64756,2.7705 0.53279,0.10656 3.51641,2.77051 3.51641,2.77051 l 2.55739,4.04919 5.43445,7.35249 c 0,0 3.51641,3.19674 3.94264,3.19674 0.42623,0 4.0492,3.40985 4.58198,3.40985 0.53279,0 5.96724,2.0246 5.96724,2.0246 l 4.68855,0.10656 2.66394,-0.53279 4.90166,-3.51641 c 0,0 1.70493,-2.0246 2.13116,-2.34427 0.42623,-0.31968 1.91804,-2.13116 1.91804,-2.13116 l 1.38525,2.98362 v 2.13116 c 0,0 -4.47543,3.19673 -4.90166,3.5164 -0.42623,0.31968 -4.7951,3.09018 -4.7951,3.09018 l -6.0738,3.09018 -7.03281,0.53279 -6.92626,-1.2787 -5.43445,-2.55738 -5.64756,-3.40986 -6.50003,-5.86068 -5.00822,-3.5164 -6.0738,-1.81149 -3.19673,-0.63934 -4.90166,0.63934 c 0,0 -1.91804,1.06558 -2.13116,1.59837 -0.21311,0.53279 -3.72952,3.09018 -3.72952,3.09018 l -3.19673,3.62296 -1.49181,2.66395 -0.85247,-9.48365 z"
         id="path19430" />
      <path
         style="opacity:1;fill:#000000;fill-opacity:1;stroke:none;stroke-width:2.39;stroke-opacity:0.718085"
         d="m 390.21475,123.18084 -1.38525,4.95494 -0.42624,1.33197 -0.10655,1.65165 0.26639,1.43853 0.2664,1.22542 0.79918,1.43853 1.22541,1.81148 0.63935,1.22541 1.49181,1.38526 2.45083,0.63934 2.55739,-0.58606 4.58198,-2.50411 c 0,0 1.43853,-1.75821 1.43853,-2.0246 0,-0.2664 3.56969,-4.63527 3.56969,-4.63527 l 5.22134,-7.45904 4.58198,-5.3279 4.0492,-3.72952 4.20903,-3.25001 6.39347,-2.98362 c 0,0 4.58199,-0.95902 4.7951,-0.95902 0.21312,0 4.84839,-0.37296 4.84839,-0.37296 l 3.30329,-0.47951 0.63934,-0.10655 -8.47134,-10.709064 -2.98362,-2.45083 -0.79919,-0.799184 -2.93034,1.598367 -3.72952,1.758205 -2.61067,1.758204 -3.72952,2.93034 -4.52871,4.262312 -4.26231,4.52871 -3.35657,4.52871 -2.23772,4.10247 -2.93034,4.63527 -1.65164,3.35657 -1.49181,3.19673 -2.50411,2.34428 -1.7582,1.81148 -1.54509,1.11886 h -1.59837 l -1.59837,-0.95903 -0.79918,-1.43853 -0.31967,-2.39755 0.58606,-3.40985 z"
         id="path19756" />
      <path
         style="opacity:1;fill:#d38d5f;fill-opacity:1;stroke:#00000c;stroke-width:2.38866;stroke-dasharray:none;stroke-opacity:0.718085"
         d="m 382.96881,143.0006 -4.26231,2.55739 -0.63935,3.40985 1.2787,3.40985 0.42623,3.40985 c 0,0 -0.63935,2.7705 -0.21312,3.83608 0.42624,1.06558 -0.21311,5.75412 -0.21311,5.75412 l 2.13115,4.0492 0.85247,2.13115 -3.19674,1.2787 -2.55738,2.7705 -3.67929,3.26829 -3.466,1.05487 -3.69204,1.80834 -3.01391,1.65766 -2.48647,2.86321 -1.733,3.3153 -2.03439,4.67156 -0.22605,4.21948 0.60279,4.14412 2.18508,4.06878 4.44552,1.43161 3.23995,1.13022 3.16461,3.3153 2.86321,5.0483 2.63718,5.72643 2.78786,9.34312 1.95904,7.61012 2.71252,5.50039 4.06878,4.97295 4.89761,1.80835 4.67156,-0.22605 4.52086,-2.71251 4.14413,-7.45943 3.76739,-10.02125 2.48647,-12.43238 4.44552,-15.37095 1.733,-3.76739 2.26043,-1.88369 2.03439,-3.91808 0.60278,-6.85665 -1.4316,-5.0483 -2.26044,-2.63717 -2.93856,-1.88369 -3.1646,-0.90418 -3.466,-0.52743 -2.18509,1.05487 -1.05486,0.90417 -1.28092,-3.39065 -2.18508,-1.88369 -2.48648,-2.86322 -1.5823,-1.20556 -0.1507,-3.76739 0.82883,-3.08926 -0.1507,-2.93856 -1.28091,-1.95904 -1.13021,-1.05487 0.45208,-4.06878 -0.90417,-6.70595 -1.20557,-4.14413 -0.37673,-2.10973 -1.43161,-0.52744 -1.20557,-1.13022 -1.13021,-1.28091 -1.05487,-2.10973 -0.82883,-1.50696 -1.28091,1.88369 -2.10973,1.20557 -1.13022,2.41113 -1.35626,0.67813 0.67813,1.65765 -0.0754,1.65765 z"
         id="path19758" />
      <path
         style="opacity:1;fill:#3a2b21;fill-opacity:1;stroke:#00000c;stroke-width:1.081;stroke-dasharray:none;stroke-opacity:0.718085"
         d="m 307.31276,171.34498 5.32789,5.96724 8.0984,7.45904 10.86889,5.54101 8.95086,2.34427 10.44267,-1.27869 4.90166,-2.13116 3.40985,-1.91804 3.19673,-4.90166 6.60659,-2.7705 4.26231,-1.91804 5.32789,-4.47543 3.40985,-2.34427 -3.19673,-5.11478 v -8.09839 -6.8197 l -1.91804,-2.98362 -6.8197,3.62296 -2.03273,1.05399 -6.85665,0.67813 -7.00734,-1.43161 -11.07612,-5.72643 -8.3636,-7.23338 -3.39065,-2.41113 -9.41847,-2.41113 -4.44552,0.37674 -2.03439,1.50696 -4.59621,3.76739 -3.69204,4.59621 -0.52743,1.50695 0.22604,2.63718 -1.28091,7.30873 1.20556,11.60355 0.75348,2.18509 z"
         id="path22194" />
      <path
         style="opacity:0.0740741;fill:#d0956f;fill-opacity:1;stroke:#00000c;stroke-width:2.38866;stroke-dasharray:none;stroke-opacity:0.718085"
         d="m 373.2728,178.57419 -1.20557,3.61669"
         id="path20414" />
      <path
         style="opacity:0.814815;fill:#ffffff;fill-opacity:1;stroke:#00000c;stroke-width:1.081;stroke-dasharray:none;stroke-opacity:0.718085"
         d="m 334.31801,138.79057 -3.39065,0.90418 -4.37017,2.03438 -2.56183,2.26044 -2.48647,2.71252 -1.65765,3.3153 -1.50696,2.71252 -0.97952,4.37017 v 3.54134 l 0.75348,5.0483 c 0,0 1.5823,3.54135 1.5823,3.84274 0,0.30139 3.61669,4.52086 3.61669,4.52086 l 3.39065,3.39065 4.52087,3.69204 5.42504,1.58231 7.53477,0.52743 7.00734,-1.20556 6.932,-2.56183 5.0483,-3.99343 4.14413,-5.34969 1.73299,-4.06878 0.97952,-5.65108 -0.67813,-4.52087 -1.4316,-3.01391 -0.30139,-0.22604 -6.70595,0.60278 -6.932,-1.35626 -10.77473,-5.95247 -5.72643,-4.97295 z"
         id="path22108" />
      <path
         style="opacity:0.367901;fill:#1e140d;fill-opacity:1;stroke:#00000c;stroke-width:2.01071;stroke-dasharray:none;stroke-opacity:0.718085"
         d="m 373.57419,179.32767 c -0.55578,0.9726 -0.58115,0.79601 -0.75348,1.65765 -0.01,0.0493 0.0355,0.11517 0,0.15069 -0.0794,0.0794 -0.20093,0.10047 -0.30139,0.1507 -0.0502,0.20093 -0.0501,0.42173 -0.1507,0.60278 -0.1562,0.28116 -0.42436,0.48586 -0.60278,0.75348 -0.24162,0.36243 -0.15069,3.35411 -0.15069,3.76739 0,0.39226 0.12314,0.98682 0,1.35626 -0.11455,0.34363 -0.44079,0.58018 -0.60278,0.90417 -0.0899,0.17971 0.0487,0.40785 0,0.60278 -0.0172,0.0689 -0.10047,0.10046 -0.1507,0.1507 -0.0502,0.10046 -0.12867,0.19125 -0.1507,0.30139 -0.0966,0.483 0.0966,1.02395 0,1.50695 -0.022,0.11014 -0.12866,0.19125 -0.15069,0.30139 -0.099,0.49488 0,1.14788 0,1.65765 0,0.28243 0.16846,1.10358 0,1.35626 -0.36709,0.55064 -0.2206,-0.16157 -0.45209,0.30139 -0.15008,0.30017 -0.0537,1.11915 -0.15069,1.50696 -0.51243,2.0497 0.28455,-1.30574 -0.45209,0.90417 -0.19207,0.57621 0.13377,0.9211 -0.45209,1.50696"
         id="path20416" />
      <path
         style="opacity:0.367901;fill:#8d5e3e;fill-opacity:1;stroke:#00000c;stroke-width:2.01071;stroke-dasharray:none;stroke-opacity:0.718085"
         d="m 385.62983,182.34158 c 0.73738,0.19853 1.309,-1.67834 1.95904,-1.80835 0.14777,-0.0296 0.30589,0.0366 0.45209,0 0.27567,-0.0689 0.35912,-0.45659 0.60278,-0.60278 0.12435,-0.0746 2.31804,-0.1507 2.71252,-0.1507 1.02748,0 2.59818,0.0182 3.466,0.45209 0.1692,0.0846 0.63683,0.0341 0.75347,0.15069 0.36601,0.36601 -0.0448,0.22129 0.3014,0.45209 0.45067,0.30045 1.04292,0.67216 1.50695,0.90417 0.16074,0.0804 0.44204,-0.0804 0.60278,0 0.22465,0.11233 0.27449,0.42519 0.45209,0.60279 0.0794,0.0794 0.20793,0.0884 0.30139,0.15069 0.28484,0.1899 0.45094,0.60221 0.75348,0.75348 0.57962,0.28981 -0.75102,-0.93234 0.60278,0.1507 0.35968,0.28774 0.56086,0.82033 0.75348,1.20556 0.12708,0.25415 0.43229,0.37546 0.60278,0.60278 0.0603,0.0804 -0.0449,0.21154 0,0.30139 0.22978,0.45956 0.11947,-0.27561 0.30139,0.45209 0.0244,0.0975 -0.0318,0.20608 0,0.30139 0.17592,0.52776 1.48046,1.12608 1.65765,1.65765 0.15289,0.45865 0,1.77625 0,2.26043 0,0.34681 0.15036,1.05555 0,1.35626 -0.0318,0.0635 -0.13346,0.0818 -0.15069,0.1507 -0.098,0.39186 0.14769,0.98702 0,1.35626 -0.0417,0.10429 -0.23909,0.0572 -0.3014,0.15069 -0.0557,0.0836 0.0318,0.20609 0,0.3014 -0.0225,0.0674 -0.11892,0.0871 -0.15069,0.15069 -0.11685,0.2337 0.0479,0.30491 -0.1507,0.60278 -0.0394,0.0591 -0.10046,0.10047 -0.15069,0.1507 -0.10047,0.0502 -0.234,0.0608 -0.30139,0.15069 -0.16661,0.22214 -0.0413,0.47274 -0.30139,0.60279 -0.18512,0.0925 -0.4893,0.0744 -0.60279,0.30139 -0.2895,0.579 -0.40201,1.00479 -0.90417,1.50695"
         id="path20863" />
      <path
         style="opacity:0.419753;fill:#8d5e3e;fill-opacity:1;stroke:#00000c;stroke-width:2.01071;stroke-dasharray:none;stroke-opacity:0.718085"
         d="m 318.18166,209.91891 c 0.96972,0.28678 2.23785,-0.31963 3.19673,0 0.24481,0.0816 0.29569,0.5088 0.42623,0.63935 0.11059,0.11058 0.86182,0.32435 1.06558,0.42623 0.50462,0.25231 1.38157,-0.17883 1.91804,0 0.1507,0.0502 0.26955,0.187 0.42623,0.21311 0.39291,0.0655 5.92753,0.12642 6.18036,0 0.26957,-0.13478 0.36977,-0.50456 0.63935,-0.63934 0.12707,-0.0635 0.28691,0.0279 0.42623,0 0.22028,-0.0441 0.41776,-0.17619 0.63934,-0.21312 0.8255,-0.13758 1.73725,0.16403 2.55739,0 0.997,-0.1994 1.98614,-0.22673 2.98362,-0.42623 0.13932,-0.0279 0.3044,0.0731 0.42623,0 0.25844,-0.15506 0.36233,-0.52062 0.63935,-0.63935 0.26118,-0.11193 0.57382,0.0557 0.85246,0 0.19703,-0.0394 0.24652,-0.33637 0.42623,-0.42623 0.25416,-0.12708 0.59831,0.12708 0.85246,0 0.14208,-0.071 0.086,-0.33092 0.21312,-0.42623 0.10032,-0.0752 1.10351,-0.58095 1.27869,-0.63935 0.13479,-0.0449 0.30802,0.0788 0.42624,0 0.13216,-0.0881 0.10079,-0.31391 0.21311,-0.42623 0.18622,-0.18621 0.89913,-0.343 1.06558,-0.42623 0.30566,-0.15283 0.29932,-0.76786 0.42623,-0.85246 1.2894,-0.8596 0.0853,0.30896 1.06558,-0.42623 0.29725,-0.22294 0.69967,-0.73049 1.06558,-0.85246 0.21865,-0.0729 1.59362,-0.10181 1.70492,-0.21312 0.18112,-0.18111 0.22623,-0.47934 0.42623,-0.63935 0.52199,-0.41759 0.93242,-0.0733 1.49181,-0.21311 0.3337,-0.0834 0.79294,-0.45759 1.06558,-0.63935 0.25765,-0.17177 0.71563,0.0202 1.06558,-0.21312 0.022,-0.0147 0.39914,-0.81183 0.42623,-0.85246 0.43806,-0.65709 -0.03,0.45623 0.85246,-0.42623 0.15885,-0.15885 0.11266,-0.43842 0.21312,-0.63935 0.1632,-0.3264 0.37977,-0.16666 0.63935,-0.42623 0.48195,-0.72294 0.24511,-0.45823 0.63934,-0.85246"
         id="path21204" />
      <path
         style="opacity:0.419753;fill:#8d5e3e;fill-opacity:1;stroke:#00000c;stroke-width:2.01071;stroke-dasharray:none;stroke-opacity:0.718085"
         d="m 422.60832,194.36147 c 0.71039,0.28415 1.49455,0.42806 2.13116,0.85246 0.14744,0.0983 0.97178,1.76171 1.06558,1.91804 0.40829,0.68049 1.00934,1.27476 1.49181,1.91804 0.65709,0.87613 -0.51977,-0.946 0.85246,0.42623 0.15885,0.15885 0.0543,0.4805 0.21312,0.63935 0.33577,0.33577 0.93253,0.25315 1.27869,0.42623 0.37517,0.18759 0.76206,0.76206 1.06558,1.06558 0.35519,0.35519 0.90673,0.58904 1.06558,1.06558 0.0449,0.13478 -0.0788,0.30801 0,0.42623 0.56743,0.85115 0.23265,-0.058 0.63934,0.21312 0.53235,0.35489 0.82505,1.112 1.49181,1.27869 0.13784,0.0345 0.29145,-0.0449 0.42623,0 0.46299,0.15433 0.47221,0.86779 1.06558,1.06558 0.61028,0.20342 2.77095,2.2e-4 3.19674,0.21311 0.22909,0.11455 0.19714,0.5248 0.42623,0.63935 0.56357,0.28178 2.06319,-0.14146 2.7705,0 0.15576,0.0311 0.27554,0.16288 0.42623,0.21312 0.11891,0.0396 3.83038,0.004 3.83609,0 0.13216,-0.0881 0.10079,-0.31391 0.21311,-0.42624 0.25116,-0.25115 0.71522,0.0584 1.06558,0 0.49263,-0.0821 1.00248,-0.30389 1.49181,-0.42623 0.32681,-0.0817 0.74663,0.10632 1.06558,0 1.42077,-0.47359 -0.49727,0.1184 0.63934,-0.63934 0.23643,-0.15762 0.58289,0.0899 0.85247,0 0.0953,-0.0318 0.1146,-0.19342 0.21311,-0.21312 0.27864,-0.0557 0.57383,0.0557 0.85246,0 0.0985,-0.0197 0.12326,-0.16819 0.21312,-0.21311 0.3336,-0.1668 0.91785,0.0902 1.27869,0 0.21794,-0.0545 0.41776,-0.17619 0.63935,-0.21312 0.66629,-0.11105 1.74608,0.25637 2.34427,0 0.23543,-0.1009 0.22623,-0.47934 0.42623,-0.63935 0.45062,-0.36049 1.24749,-0.12127 1.70493,-0.42623 0.16718,-0.11145 0.25394,-0.32285 0.42623,-0.42623 0.41049,-0.24629 1.1103,-0.35322 1.49181,-0.63935 0.51381,-0.38536 0.0901,-0.63934 1.06558,-0.63934"
         id="path21206" />
      <path
         style="opacity:0.419753;fill:#8d5e3e;fill-opacity:1;stroke:#00000c;stroke-width:2.01071;stroke-dasharray:none;stroke-opacity:0.718085"
         d="m 452.01828,205.01725 c 0.60783,0.84237 1.04814,1.67004 1.49181,2.55739 0.14815,0.29629 0.0293,0.69787 0.21312,1.06558 0.0449,0.0899 0.18875,0.11565 0.21311,0.21311 0,1.51157 -0.15069,0.12484 0.21312,0.85246 0.3505,0.701 -0.30357,2.43782 0,3.19674 0.0746,0.18656 0.33637,0.24652 0.42623,0.42623 0.0928,0.18564 0.0652,4.73869 0,4.90166 -0.0746,0.18656 -0.33637,0.24652 -0.42623,0.42623 -0.18202,0.36405 -0.0439,1.15339 -0.21312,1.49181 -0.071,0.14208 -0.33811,0.081 -0.42623,0.21312 -0.27821,0.41731 0.43277,1.49181 -0.42623,1.49181"
         id="path21208" />
      <path
         style="opacity:0.419753;fill:#8d5e3e;fill-opacity:1;stroke:#00000c;stroke-width:2.01071;stroke-dasharray:none;stroke-opacity:0.718085"
         d="m 459.26422,204.59102 c -0.16313,1.00327 0.50155,1.21622 0.85246,1.91804 0.26058,0.52117 -0.0771,1.41466 0.42623,1.91804 0.42623,0.42623 0.49727,-0.071 0.63935,0.63935 0.0424,0.21217 0.0784,2.01841 0.21311,2.55739 0.0702,0.28087 0.5268,0.23864 0.63935,0.42623 0.38577,0.64296 0.26934,1.07734 0.42623,1.70492 0.14257,0.57027 0.63075,0.68747 0.85246,1.2787 0.7353,1.96079 -0.059,0.2952 -0.21311,1.06557 -0.0836,0.41796 0.19061,0.89747 0,1.2787 -0.23826,0.47651 -0.32768,1.1136 -0.42623,1.70492 -0.10209,0.61254 0.27775,1.64029 -0.21312,2.13116 -0.11232,0.11232 -0.31391,0.10079 -0.42623,0.21312 -0.20506,0.20505 -0.0635,0.97939 -0.21312,1.27869 -0.42294,0.84588 -0.0674,-0.9419 -0.42623,0.85246 -0.1177,0.58849 0.38295,1.91804 -0.63935,1.91804"
         id="path21210" />
      <path
         style="opacity:0.419753;fill:#8d5e3e;fill-opacity:1;stroke:#00000c;stroke-width:2.01071;stroke-dasharray:none;stroke-opacity:0.718085"
         d="m 334.16533,210.13203 c -0.4194,0.18424 -0.24145,1.39696 -0.42623,1.70492 -0.28546,0.47576 -0.78012,0.80293 -1.06558,1.2787 -0.22197,0.36995 -0.0274,1.00016 -0.21311,1.27869 -0.11146,0.16718 -0.31478,0.25905 -0.42623,0.42623 -0.11822,0.17732 0.0517,0.43259 0,0.63935 -0.25729,1.02912 -0.10128,-0.0106 -0.42624,0.63934 -0.12707,0.25416 0.0689,0.5768 0,0.85247 -0.0544,0.2176 -0.5518,0.33869 -0.63934,0.42623 -0.22382,0.22382 -0.36421,2.12718 -0.42623,2.34427 -0.3552,1.24317 0,-0.31967 -0.63935,0.63935 -0.12716,0.19074 0,1.04085 0,1.27869 0,0.50476 -0.12216,1.42942 0,1.91804 0.0608,0.24313 0.35327,0.56061 0.42623,0.85246 0.0898,0.35912 0.009,0.97185 0.21312,1.2787 0.11145,0.16718 0.33637,0.24651 0.42623,0.42623 0.33763,0.67526 -0.44102,0.19832 0.21311,0.85246 0.78613,0.78613 0.086,-0.51035 0.85247,0.63935 0.0394,0.0591 0,0.14208 0,0.21311 0.071,0.071 0.14207,0.14208 0.21311,0.21312"
         id="path21212" />
      <path
         style="opacity:0.419753;fill:#8d5e3e;fill-opacity:1;stroke:#00000c;stroke-width:2.01071;stroke-dasharray:none;stroke-opacity:0.718085"
         d="m 325.64071,212.05007 c -0.61199,0.49737 0.0729,1.77228 -0.21312,2.34427 -0.11455,0.22909 -0.33111,0.40153 -0.42623,0.63935 -0.10553,0.26383 0.12708,0.5983 0,0.85246 -0.28992,0.57983 -1.45083,1.30492 -1.91804,1.49181 -0.27195,0.10878 -0.60131,0.0624 -0.85246,0.21311 -0.38527,0.23116 -0.24104,1.21402 -0.42624,1.49181 -0.0881,0.13217 -0.31391,0.1008 -0.42623,0.21312 -0.24203,0.24203 0.13825,1.1462 0,1.49181 -0.0951,0.23781 -0.31168,0.41025 -0.42623,0.63935 -0.28929,0.57857 0.15707,1.71599 0,2.34427 -0.19107,0.76429 -0.29005,1.00633 -0.63935,1.70492 -0.26379,0.52759 0.0184,1.55242 -0.21311,2.13116 -0.0746,0.18656 -0.31478,0.25905 -0.42623,0.42623 -0.15351,0.23027 0.18432,0.88126 0,1.06558 -0.11232,0.11232 -0.33812,0.081 -0.42623,0.21311 -0.23966,0.3595 0.1645,0.8225 0.21311,1.06558 0.0996,0.49793 -0.16287,1.21632 0,1.70493 0.22711,0.68131 0.17611,0.94052 0.85246,1.27869 0.14208,0.071 0.33093,0.086 0.42624,0.21312 0.13478,0.17971 0.0783,0.45963 0.21311,0.63934 0.0953,0.12708 0.31391,0.1008 0.42623,0.21312 0.11442,0.11441 0.38186,1.14557 0.42623,1.27869"
         id="path21214" />
      <path
         style="opacity:0.419753;fill:#8d5e3e;fill-opacity:1;stroke:#00000c;stroke-width:2.01071;stroke-dasharray:none;stroke-opacity:0.718085"
         d="m 303.26356,180.50895 c 1.03709,1.03244 1.01265,1.57259 1.49181,2.7705 0.0791,0.19788 -0.0674,0.43717 0,0.63935 0.12495,0.37485 0.37942,0.12647 0.63935,0.21312 0.34732,0.11577 0.40131,1.00328 0.42623,1.06558 0.14016,0.3504 0.4162,0.1287 0.63935,0.42623 0.25598,0.34131 0.23563,1.1106 0.42623,1.49181 0.0239,0.0478 1.57369,1.42619 1.70492,1.49181"
         id="path21216" />
      <path
         style="opacity:0.419753;fill:#8d5e3e;fill-opacity:1;stroke:#00000c;stroke-width:2.01071;stroke-dasharray:none;stroke-opacity:0.718085"
         d="m 477.4034,170.28594 c -0.81596,0.15376 -0.40297,0.87142 -0.90417,1.20556 -0.0935,0.0623 -0.23909,0.0572 -0.30139,0.15069 -0.10037,0.15056 0.0803,0.44214 0,0.60279 -0.11233,0.22464 -0.33977,0.37814 -0.45209,0.60278 -0.0803,0.16065 0.10037,0.45222 0,0.60278 -0.0623,0.0935 -0.20793,0.0884 -0.30139,0.1507 -0.27477,0.18318 -0.35269,0.45288 -0.75348,0.75347 -0.38588,0.28941 -0.52892,0.72652 -0.90417,1.05487 -0.16777,0.1468 -1.36441,0.92047 -1.50696,1.20557 -0.0225,0.0449 0,0.10046 0,0.15069 -0.0502,0.1507 -0.0796,0.31001 -0.15069,0.45209 -0.11232,0.22464 -0.45209,0.25116 -0.60278,0.45209 -0.0572,0.0762 -0.12975,0.97106 -0.1507,1.05486 -0.0385,0.15387 -0.39019,0.23949 -0.45209,0.3014 -0.13753,0.13753 -0.61627,0.72123 -0.75347,0.90417 -0.12427,0.16569 -0.0213,0.44105 -0.1507,0.60278 -0.2796,0.3495 -1.70051,1.30234 -2.10974,1.50696"
         id="path21220" />
      <path
         style="opacity:0.419753;fill:#8d5e3e;fill-opacity:1;stroke:#00000c;stroke-width:2.01071;stroke-dasharray:none;stroke-opacity:0.718085"
         d="m 418.7075,265.14876 c 0,0.43181 0.025,1.08052 -0.0753,1.50696 -0.0438,0.18619 -0.16556,0.34597 -0.22604,0.52743 -0.10699,0.32097 0.0505,0.75279 -0.0754,1.13022 -0.0225,0.0674 -0.11893,0.0872 -0.1507,0.1507 -0.0112,0.0225 0,0.0502 0,0.0753 -0.10046,0.12558 -0.21615,0.24037 -0.30139,0.37674 -0.0424,0.0678 -0.34947,0.67167 -0.37674,0.75348 -0.0159,0.0477 0,0.10046 0,0.1507 -0.0251,0.12557 -0.0316,0.25638 -0.0754,0.37673 -0.18165,0.49955 -0.42649,0.50114 -0.52743,0.75348 -0.0339,0.0849 -0.11393,0.81227 -0.15069,0.90417 -0.0466,0.1166 -0.16144,0.19371 -0.22605,0.3014 -0.13731,0.22885 -0.10794,0.51728 -0.22604,0.75347 -0.0655,0.13099 -0.16657,0.24291 -0.22604,0.37674 -0.17569,0.39529 -0.27231,0.82288 -0.52744,1.20557 -0.0697,0.10448 -0.16143,0.1937 -0.22604,0.30139 -0.0129,0.0215 0,0.0502 0,0.0753 -0.0502,0.10047 -0.0805,0.21369 -0.1507,0.3014 -0.0351,0.0438 -0.12558,0.0251 -0.15069,0.0753 -0.0337,0.0674 0.0183,0.15295 0,0.22605 -0.0328,0.13121 -0.11354,0.24669 -0.1507,0.37674 -0.0138,0.0483 0.0159,0.10304 0,0.15069 -0.0337,0.10109 -0.16693,0.13738 -0.22604,0.22604 -0.0923,0.13839 -0.10752,0.37928 -0.22605,0.52744 -0.0888,0.11094 -0.24862,0.16947 -0.30139,0.30139 -0.0476,0.11891 0.0152,0.28618 -0.0753,0.37674 -0.0397,0.0397 -0.12558,0.0251 -0.1507,0.0754 -0.0337,0.0674 0.0238,0.15456 0,0.22604 -0.0463,0.13893 -0.16055,0.24575 -0.22604,0.37674"
         id="path21222" />
      <path
         style="opacity:0.419753;fill:#8d5e3e;fill-opacity:1;stroke:#00000c;stroke-width:2.01071;stroke-dasharray:none;stroke-opacity:0.718085"
         d="m 423.37906,266.05294 c -0.0865,0.81008 -0.37888,1.58764 -0.67813,2.33578 -0.0466,0.1166 0.0397,0.2576 0,0.37674 -0.0225,0.0674 -0.12271,0.0854 -0.1507,0.15069 -0.25793,0.60183 0.0687,0.16395 -0.15069,0.60278 -0.0663,0.13258 -0.23511,0.24417 -0.30139,0.37674 -0.19517,0.39034 -0.045,0.83566 -0.1507,1.20557 -0.0621,0.21724 -0.21969,0.21333 -0.30139,0.37674 -0.0463,0.0926 -0.0179,0.21522 -0.0753,0.30139 -0.0394,0.0591 -0.11414,0.0898 -0.15069,0.15069 -0.10959,0.18265 -0.27224,0.67813 -0.52744,0.67813"
         id="path21224" />
      <path
         style="opacity:0.419753;fill:#8d5e3e;fill-opacity:1;stroke:#00000c;stroke-width:2.01071;stroke-dasharray:none;stroke-opacity:0.718085"
         d="m 373.42349,269.89567 c 0,0.45209 0.0931,0.91387 0,1.35626 -0.11145,0.52941 -0.44141,0.99057 -0.60278,1.50696 -0.32609,1.04348 0.104,2.14584 -0.15069,3.1646 -0.0545,0.21794 -0.25266,0.38349 -0.3014,0.60279 -0.0728,0.3276 0,0.97016 0,1.35626"
         id="path21226" />
      <path
         style="opacity:0.419753;fill:#8d5e3e;fill-opacity:1;stroke:#00000c;stroke-width:2.01071;stroke-dasharray:none;stroke-opacity:0.718085"
         d="m 366.03941,272.15611 c 0.20093,0.45208 0.40186,0.90417 0.60279,1.35626 0.25115,0.35162 0.56023,0.66837 0.75347,1.05486 0.11455,0.2291 0.0608,0.51366 0.1507,0.75348 0.13807,0.36819 0.72665,1.04145 1.05487,1.20557"
         id="path21228" />
      <path
         style="opacity:0.419753;fill:#8d5e3e;fill-opacity:1;stroke:#00000c;stroke-width:2.01071;stroke-dasharray:none;stroke-opacity:0.718085"
         d="m 318.26893,117.84389 c 3.17478,0.0948 2.38783,-1.1313 4.52087,-2.41112 1.13085,-0.67851 1.00354,0.77114 3.01391,-0.90418 0.1139,-0.0949 1.41556,-1.0837 1.50695,-1.20556 0.89948,-1.1993 -0.13506,-0.85915 1.80835,-1.50696 0.91651,-0.3055 2.33075,0 3.3153,0 0.38223,0 5.6709,-0.0555 5.72643,0 0.15885,0.15885 0.14255,0.44394 0.30139,0.60279 0.32575,0.32575 2.23955,0.52579 2.71252,0.90417 0.28285,0.22628 0.34665,0.64804 0.60278,0.90417 0.43715,0.43715 1.01315,0.23243 1.50696,0.60278 0.45465,0.34099 0.7327,0.89033 1.20556,1.20557 0.22098,0.14732 1.03369,0.12951 1.20557,0.30139 0.15884,0.15885 0.14254,0.44393 0.30139,0.60278 0.22464,0.22465 0.65002,0.11078 0.90417,0.30139 0.22733,0.1705 0.40186,0.40186 0.60278,0.60278 0.40186,0.20093 0.82031,0.37163 1.20557,0.60279 0.82932,0.49759 1.30268,1.5717 2.10974,2.10973 0.67393,0.44929 1.4358,0.75628 2.10973,1.20557 0.81006,0.54004 0.30982,1.21399 0.90418,1.80834"
         id="path21230" />
      <path
         style="opacity:0.419753;fill:#8d5e3e;fill-opacity:1;stroke:#00000c;stroke-width:2.01071;stroke-dasharray:none;stroke-opacity:0.718085"
         d="m 407.48068,104.58269 c 1.2156,-1.2294 2.71582,-1.85139 3.61669,-3.3153 0.5421,-0.8809 0.9138,-1.86516 1.50696,-2.712521 0.23497,-0.335681 0.75692,-0.161043 0.90417,-0.602782 0.0635,-0.190617 -0.0635,-0.412166 0,-0.602782 0.25922,-0.777657 2.78294,-2.871385 3.3153,-3.616693 0.18466,-0.258518 0.12517,-0.639836 0.30139,-0.904173 0.23643,-0.354646 0.63131,-0.576733 0.90418,-0.904173 0.23189,-0.278271 0.31993,-0.677892 0.60278,-0.904173 0.42246,-0.337969 1.07414,-0.278174 1.50695,-0.602782 0.81975,-0.614809 1.83003,-2.516411 2.71252,-2.71252 3.19294,-0.709541 1.93884,0.236147 4.21948,-0.904173 0.34632,-0.17316 0.77594,-0.08658 1.20556,-0.301391"
         id="path21232" />
      <path
         style="opacity:0.419753;fill:#8d5e3e;fill-opacity:1;stroke:#00000c;stroke-width:2.01071;stroke-dasharray:none;stroke-opacity:0.718085"
         d="m 403.5626,96.14374 c 1.90881,-1.205564 3.89427,-2.297542 5.72643,-3.616692 4.52037,-3.254673 0.29193,-0.59332 2.41112,-2.712519 0.3454,-0.345393 1.16157,-0.558781 1.50696,-0.904173 0.25613,-0.256134 0.30139,-0.703246 0.60278,-0.904174 0.34466,-0.229769 0.82097,-0.147552 1.20557,-0.301391 0.13191,-0.05277 0.16355,-0.266932 0.30139,-0.301391 0.29239,-0.0731 0.6534,0.167182 0.90417,0 0.70004,-0.466692 1.40915,-1.885688 2.10974,-2.411128 0.86822,-0.651169 1.37256,-0.33399 1.80834,-1.205564"
         id="path21234" />
      <path
         style="opacity:0;fill:#8d3e3f;fill-opacity:1;stroke:#00000c;stroke-width:2.01071;stroke-dasharray:none;stroke-opacity:0.718085"
         d="m 334.84544,212.78207 c 0,0.60278 0.90417,7.83617 0.90417,7.83617 l 3.16461,8.58964 5.72643,9.04173 5.57573,4.21948 c 0,0 11.30217,5.12365 11.90495,4.97295 0.60278,-0.1507 11.90495,-0.90417 11.90495,-0.90417 l 8.28825,-0.90418 22.00154,-2.10973 h 3.466 c 0,0 4.82226,0.45208 5.57574,0.45208 0.75347,0 7.53477,-1.35626 8.28825,-1.65765 0.75348,-0.30139 8.28825,-3.1646 8.28825,-3.1646 l 7.68547,-6.47991 5.87713,-9.34312 2.86321,-5.42504 -0.15069,-9.64451 -4.82226,4.37017 -8.89103,5.42503 -8.58965,4.52087 -9.64451,1.35626 -5.27434,0.30139 -31.79676,0.75348 -7.23338,-0.1507 -10.69939,-0.90417 -9.04173,-2.56182 -6.93199,-2.26044 -6.32921,-4.52086 z"
         id="path21290" />
      <path
         style="opacity:0;fill:#fffefe;fill-opacity:1;stroke:#00000c;stroke-width:2.01071;stroke-dasharray:none;stroke-opacity:0.718085"
         d="m 412.90572,243.97604 0.15069,-5.42504 v -6.6306 l 2.41113,-4.21947 3.6167,-1.95904 4.52086,0.30139 3.16461,4.06878 c 0,0 -0.45209,7.08269 -0.45209,7.83616 0,0.75348 -0.1507,2.41113 -0.1507,2.41113 l -5.57573,2.26043 -4.82226,1.05487 z"
         id="path21508" />
      <path
         style="opacity:1;fill:#3a2b21;fill-opacity:1;stroke:#00000c;stroke-width:1.081;stroke-dasharray:none;stroke-opacity:0.718085"
         d="m 395.57573,140.14683 c 0,0 1.50696,6.932 1.50696,7.53478 0,0.60278 0.30139,7.38408 0.30139,7.38408 l -1.05487,2.10974 3.16461,2.71251 -0.1507,5.87713 v 2.26043 l 1.80835,2.56183 3.61669,3.3153 1.65765,3.76739 3.01391,-1.80835 7.38408,1.95904 4.82226,3.61669 1.50695,4.67156 9.79521,1.50696 11.60356,-0.30139 12.95981,-4.67156 8.28826,-6.32921 6.93199,-11.15147 3.16461,-7.38408 0.90417,-5.12365 -11.60356,-21.54946 -7.53477,-11.00077 -4.52087,-4.82226 -5.87712,-5.72643 -2.86322,-3.3153 -11.90494,1.50696 -6.17852,2.71251 -11.15147,9.49382 -6.02782,8.13756 -4.97295,6.47991 -0.45209,2.26043 -3.76739,1.50696 -1.80834,1.20556 z"
         id="path22196" />
      <path
         style="opacity:0.839506;fill:#e3dbdb;fill-opacity:1;stroke:#00000c;stroke-width:1.611;stroke-dasharray:none;stroke-opacity:0.718085"
         d="m 425.71484,125.83076 -4.06878,1.65765 -4.82226,2.26043 -4.52086,4.52087 c 0,0 -2.41113,4.06878 -2.41113,4.67156 0,0.60278 -2.26043,5.87712 -2.26043,5.87712 l -0.90418,6.932 0.90418,6.93199 2.71252,6.32921 4.52086,5.27435 9.34312,3.76738 9.94591,0.75348 7.98686,-0.90417 7.83617,-3.91809 4.97295,-6.17851 2.26043,-6.6306 0.90417,-10.2473 -3.3153,-6.7813 -5.42504,-8.74034 -5.12364,-3.01391 -5.42504,-2.56182 -6.17852,-0.90418 -5.12365,0.3014 z"
         id="path21883" />
      <path
         style="opacity:0.750617;fill:url(#radialGradient21990);fill-opacity:1;fill-rule:evenodd;stroke:#00000c;stroke-width:1.081;stroke-dasharray:none;stroke-opacity:0.718085;filter:url(#filter21953)"
         id="path21885"
         sodipodi:type="arc"
         sodipodi:cx="432.11938"
         sodipodi:cy="152.49776"
         sodipodi:rx="7.5347762"
         sodipodi:ry="7.4533191"
         sodipodi:start="0"
         sodipodi:end="6.2824981"
         sodipodi:open="true"
         sodipodi:arc-type="arc"
         d="m 439.65416,152.49776 a 7.5347762,7.4533191 0 0 1 -7.53348,7.45332 7.5347762,7.4533191 0 0 1 -7.53607,-7.45076 7.5347762,7.4533191 0 0 1 7.53089,-7.45588 7.5347762,7.4533191 0 0 1 7.53866,7.44819" />
      <path
         style="fill:#241c1c;fill-rule:evenodd;filter:url(#filter21957)"
         id="path21895"
         sodipodi:type="arc"
         sodipodi:cx="432.30777"
         sodipodi:cy="152.61688"
         sodipodi:rx="3.2776275"
         sodipodi:ry="3.5036707"
         sodipodi:start="0"
         sodipodi:end="6.2824981"
         sodipodi:open="true"
         sodipodi:arc-type="arc"
         d="m 435.5854,152.61688 a 3.2776275,3.5036707 0 0 1 -3.27707,3.50367 3.2776275,3.5036707 0 0 1 -3.27819,-3.50246 3.2776275,3.5036707 0 0 1 3.27594,-3.50488 3.2776275,3.5036707 0 0 1 3.27932,3.50126" />
      <path
         style="opacity:0.750617;fill:url(#radialGradient21990-5);fill-opacity:1;fill-rule:evenodd;stroke:#00000c;stroke-width:1.081;stroke-dasharray:none;stroke-opacity:0.718085;filter:url(#filter21953-1)"
         id="path21885-2"
         sodipodi:type="arc"
         sodipodi:cx="346.31293"
         sodipodi:cy="158.98427"
         sodipodi:rx="7.5347762"
         sodipodi:ry="7.4533191"
         sodipodi:start="0"
         sodipodi:end="6.2824981"
         sodipodi:open="true"
         sodipodi:arc-type="arc"
         d="m 353.8477,158.98427 a 7.5347762,7.4533191 0 0 1 -7.53348,7.45332 7.5347762,7.4533191 0 0 1 -7.53607,-7.45076 7.5347762,7.4533191 0 0 1 7.53089,-7.45588 7.5347762,7.4533191 0 0 1 7.53866,7.4482" />
      <path
         style="fill:#241c1c;fill-rule:evenodd;filter:url(#filter21957-3)"
         id="path21895-1"
         sodipodi:type="arc"
         sodipodi:cx="346.50131"
         sodipodi:cy="159.10339"
         sodipodi:rx="3.2776275"
         sodipodi:ry="3.5036707"
         sodipodi:start="0"
         sodipodi:end="6.2824981"
         sodipodi:open="true"
         sodipodi:arc-type="arc"
         d="m 349.77894,159.10339 a 3.2776275,3.5036707 0 0 1 -3.27706,3.50367 3.2776275,3.5036707 0 0 1 -3.2782,-3.50246 3.2776275,3.5036707 0 0 1 3.27594,-3.50488 3.2776275,3.5036707 0 0 1 3.27932,3.50127" />
      <path
         style="opacity:0;fill:#e3dbdb;fill-opacity:1;stroke:#00000c;stroke-width:3.111;stroke-dasharray:none;stroke-opacity:0.718085"
         d="m 334.54405,138.94127 -3.466,0.90417 -4.37017,1.80835 -3.91808,3.01391 -2.86322,3.61669 -2.41112,5.72643 -0.75348,6.47991 3.01391,8.89103 c 0,0 1.20556,3.01391 1.95904,3.466 0.75348,0.45209 4.52087,4.97295 4.52087,4.97295 l 5.87712,3.3153 5.42504,2.26044 h 6.32921 l 8.43895,-1.65766 6.6306,-3.01391 5.87713,-4.82225 3.76739,-5.72643 1.20556,-6.7813 -0.30139,-5.27434 -1.50696,-3.3153 -7.98686,0.45208 -5.72643,-1.20556 -8.58964,-4.21948 -2.26043,-1.05487 z"
         id="path21951" />
      <path
         style="fill:#ffffff;fill-opacity:1;fill-rule:evenodd;stroke-width:1.1248;filter:url(#filter22050)"
         id="path22048"
         sodipodi:type="arc"
         sodipodi:cx="432.79294"
         sodipodi:cy="151.03458"
         sodipodi:rx="0.38130939"
         sodipodi:ry="0.48976043"
         sodipodi:start="0"
         sodipodi:end="6.2824981"
         sodipodi:open="true"
         sodipodi:arc-type="arc"
         d="m 433.17425,151.03458 a 0.38130939,0.48976043 0 0 1 -0.38125,0.48976 0.38130939,0.48976043 0 0 1 -0.38137,-0.4896 0.38130939,0.48976043 0 0 1 0.38111,-0.48992 0.38130939,0.48976043 0 0 1 0.38151,0.48942" />
      <path
         style="fill:#ffffff;fill-opacity:1;fill-rule:evenodd;stroke-width:1.1248;filter:url(#filter22050-9)"
         id="path22048-7"
         sodipodi:type="arc"
         sodipodi:cx="347.05179"
         sodipodi:cy="157.47681"
         sodipodi:rx="0.38130939"
         sodipodi:ry="0.48976043"
         sodipodi:start="0"
         sodipodi:end="6.2824981"
         sodipodi:open="true"
         sodipodi:arc-type="arc"
         d="m 347.4331,157.47681 a 0.38130939,0.48976043 0 0 1 -0.38125,0.48976 0.38130939,0.48976043 0 0 1 -0.38137,-0.4896 0.38130939,0.48976043 0 0 1 0.38111,-0.48992 0.38130939,0.48976043 0 0 1 0.38151,0.48942" />
      <path
         style="opacity:1;fill:#9e9193;fill-opacity:0.994667;stroke:#00000c;stroke-width:1.611;stroke-dasharray:none;stroke-opacity:0.718085"
         d="m 413.87058,243.8043 -0.63934,-10.65578 2.55738,-4.68855 3.19674,-1.91804 4.0492,-0.63935 2.98361,4.0492 1.49181,3.19674 0.21312,4.47542 0.63935,3.19674 -7.88528,2.98362 -4.47543,0.21311 z"
         id="path28184" />
    </g>
  </g>
</svg>
