<?xml version="1.0" encoding="UTF-8" standalone="no"?>
<!-- Created with Inkscape (http://www.inkscape.org/) -->

<svg
   width="210mm"
   height="297mm"
   viewBox="0 0 210 297"
   version="1.1"
   id="svg5"
   xml:space="preserve"
   inkscape:version="1.2.1 (9c6d41e410, 2022-07-14)"
   sodipodi:docname="icon_tasks.svg"
   xmlns:inkscape="http://www.inkscape.org/namespaces/inkscape"
   xmlns:sodipodi="http://sodipodi.sourceforge.net/DTD/sodipodi-0.dtd"
   xmlns="http://www.w3.org/2000/svg"
   xmlns:svg="http://www.w3.org/2000/svg"><sodipodi:namedview
     id="namedview7"
     pagecolor="#ffffff"
     bordercolor="#000000"
     borderopacity="0.25"
     inkscape:showpageshadow="2"
     inkscape:pageopacity="0.0"
     inkscape:pagecheckerboard="0"
     inkscape:deskcolor="#d1d1d1"
     inkscape:document-units="mm"
     showgrid="false"
     inkscape:zoom="0.36257716"
     inkscape:cx="-496.44605"
     inkscape:cy="428.87423"
     inkscape:window-width="1920"
     inkscape:window-height="1001"
     inkscape:window-x="-9"
     inkscape:window-y="-9"
     inkscape:window-maximized="1"
     inkscape:current-layer="layer1" /><defs
     id="defs2" /><g
     inkscape:label="Layer 1"
     inkscape:groupmode="layer"
     id="layer1"><g
       id="g12174"
       transform="translate(0.5159964,-1.2899921)"><rect
         style="opacity:1;fill:#fbffff;fill-opacity:1;stroke:none;stroke-width:1.426;stroke-dasharray:none;stroke-opacity:1"
         id="rect11575"
         width="100.10339"
         height="124.87124"
         x="55.727657"
         y="89.783447" /><path
         style="opacity:1;fill:#00d2ff;fill-opacity:1;stroke:none;stroke-width:1.426;stroke-dasharray:none;stroke-opacity:1"
         d="m 73.787547,87.461465 -23.735853,-0.258001 -4.127976,6.191962 c 0,0 0,123.323244 0.773996,124.355244 0.773994,1.03199 5.933964,5.93396 5.933964,5.93396 l 104.489362,0.77399 6.44996,-7.22395 V 92.621432 l -6.44996,-4.90197 -21.15587,-0.257997 0.25799,15.737905 10.57794,0.258 1.54799,104.23136 H 61.919619 l 0.258001,-104.74736 12.383923,0.258 z"
         id="path12099" /><path
         style="opacity:1;fill:#00d2ff;fill-opacity:1;stroke:none;stroke-width:1.426;stroke-dasharray:none;stroke-opacity:1"
         d="m 80.237509,85.139479 -0.515998,20.639871 4.643971,4.90197 41.279748,-0.258 3.61198,-4.64397 V 86.429471 l -3.61198,-3.869979 -42.569739,0.258001 z"
         id="path12155" /><path
         style="opacity:1;fill:#00d2ff;fill-opacity:1;stroke:none;stroke-width:1.426;stroke-dasharray:none;stroke-opacity:1"
         d="m 113.00331,139.57714 10.57793,11.09394 -33.281794,34.05579 -11.609929,2.32198 -2.063986,-2.32198 2.321983,-12.38393 z"
         id="path12157" /><path
         style="opacity:1;fill:#00d2ff;fill-opacity:1;stroke:none;stroke-width:1.426;stroke-dasharray:none;stroke-opacity:1"
         d="m 117.13128,135.70717 11.60993,12.12592 4.38597,-6.70796 v -5.41796 l -3.61198,-4.12798 -4.12797,-1.28999 -3.35398,0.516 z"
         id="path12159" /></g></g></svg>
