<?xml version="1.0" encoding="UTF-8" standalone="no"?>
<!-- Created with Inkscape (http://www.inkscape.org/) -->

<svg
   version="1.1"
   id="svg14773"
   width="750"
   height="1000"
   viewBox="0 0 750 1000"
   sodipodi:docname="japanese_bird_1.svg"
   inkscape:version="1.2.1 (9c6d41e410, 2022-07-14)"
   xmlns:inkscape="http://www.inkscape.org/namespaces/inkscape"
   xmlns:sodipodi="http://sodipodi.sourceforge.net/DTD/sodipodi-0.dtd"
   xmlns:xlink="http://www.w3.org/1999/xlink"
   xmlns="http://www.w3.org/2000/svg"
   xmlns:svg="http://www.w3.org/2000/svg">
  <defs
     id="defs14777">
    <linearGradient
       inkscape:collect="always"
       id="linearGradient21469">
      <stop
         style="stop-color:#ff6fe6;stop-opacity:1;"
         offset="0"
         id="stop21465" />
      <stop
         style="stop-color:#f9f9f9;stop-opacity:0.9866221;"
         offset="1"
         id="stop21467" />
    </linearGradient>
    <linearGradient
       inkscape:collect="always"
       xlink:href="#linearGradient21469"
       id="linearGradient21471"
       x1="56.643833"
       y1="346.97698"
       x2="644.02171"
       y2="346.97698"
       gradientUnits="userSpaceOnUse" />
  </defs>
  <sodipodi:namedview
     id="namedview14775"
     pagecolor="#ffffff"
     bordercolor="#000000"
     borderopacity="0.25"
     inkscape:showpageshadow="2"
     inkscape:pageopacity="0.0"
     inkscape:pagecheckerboard="0"
     inkscape:deskcolor="#d1d1d1"
     showgrid="false"
     inkscape:zoom="0.84"
     inkscape:cx="259.52381"
     inkscape:cy="526.78571"
     inkscape:window-width="1920"
     inkscape:window-height="1001"
     inkscape:window-x="-9"
     inkscape:window-y="-9"
     inkscape:window-maximized="1"
     inkscape:current-layer="g16297" />
  <g
     inkscape:groupmode="layer"
     inkscape:label="Image"
     id="g14779">
    <g
       id="g16297"
       transform="matrix(0.86246098,0,0,0.85537163,86.906939,175.89656)">
      <path
         style="opacity:1;fill:url(#linearGradient21471);fill-opacity:1;stroke:#000000;stroke-width:4.1;stroke-dasharray:none;stroke-opacity:1"
         d="m 534.375,244.94048 5.05952,5.80357 c 0,0 -2.67857,6.39881 -0.59523,6.25 2.08333,-0.14881 18.30357,1.33928 18.30357,1.33928 0,0 -1.63691,6.39881 -1.04167,6.39881 0.59524,0 19.34524,-6.84523 19.34524,-6.84523 0,0 -4.6131,18.8988 -3.86905,18.8988 0.74405,0 11.16072,-3.42261 11.16072,-3.42261 l -1.19048,11.60714 c 0,0 5.65476,2.08333 7.58929,1.6369 1.93452,-0.44643 13.54166,-4.16666 13.54166,-4.16666 l -17.55952,34.22619 18.89881,-14.43453 -0.74405,9.67262 19.49405,-3.42262 -17.1131,16.36905 8.18453,5.80357 c 0,0 -12.05357,11.16072 -11.45834,11.60715 0.59524,0.44642 27.23215,-5.95239 27.23215,-5.95239 l -0.29762,6.69643 -5.05953,10.26786 -4.7619,7.58929 18.15476,1.78571 -23.80952,14.28571 c 0,0 2.38095,4.76191 2.23214,5.80358 -0.14881,1.04166 -5.95238,5.95238 -5.95238,5.95238 l 13.09524,8.63095 -15.47619,5.80357 6.10119,6.25 -8.48215,6.25 -2.38095,8.33333 3.42262,4.46429 -11.30952,4.31548 c 0,0 -2.52977,7.44047 -2.52977,8.92857 0,1.48809 4.91072,7.44047 4.91072,7.44047 l 3.72024,4.91072 -8.63096,6.39881 c 0,0 -6.10119,3.42262 -5.65476,3.57143 0.44643,0.14881 2.97619,6.54762 2.38096,6.69642 -0.59524,0.14881 -14.73215,7.58929 -14.73215,7.58929 l -11.45833,18.45238 -5.80357,1.33929 -15.625,18.60119 c 0,0 -28.72024,21.13095 -29.31548,21.27976 -0.59524,0.14881 -12.64881,8.33333 -12.64881,8.33333 0,0 -7.04257,26.14002 -9.56795,25.71912 -2.52538,-0.4209 -8.83883,-3.15673 -8.83883,-3.15673 l -6.9448,6.10301 -16.41498,-6.9448 c 0,0 -16.20453,7.36569 -17.25677,7.36569 -1.05224,0 -19.36126,0.4209 -19.36126,0.4209 l -19.9926,7.57615 -18.51946,-2.52539 -18.94037,5.26122 -20.20305,0.63134 -18.09856,3.57762 -11.57467,-3.78807 -14.52094,5.89256 -3.36717,-1.05224 -4.20897,9.25973 -5.05077,3.99852 -24.83291,-11.15377 c 0,0 -27.7792,-26.9374 -28.62099,-27.14785 -0.8418,-0.21045 -25.46426,-13.4687 -25.46426,-13.4687 0,0 -5.68211,3.99852 -7.3657,3.57762 -1.68359,-0.42089 -15.99408,-17.25677 -15.99408,-17.25677 l -8.83884,0.63135 -11.57466,-13.4687 h -7.78659 l -11.78512,-19.99261 -17.25677,2.10449 c 0,0 -2.31493,-0.8418 -5.05076,-2.73583 -2.73583,-1.89404 1.26269,-9.47018 1.26269,-9.47018 l -17.04633,-1.68359 -0.63134,-3.57762 5.89256,-5.47166 -28.410545,-16.41498 15.573185,-1.89404 -29.041886,-16.83587 25.043366,-7.99704 -2.73583,-4.62987 -20.4135,-4.20897 2.314933,-7.57614 -15.994082,-15.78364 31.146371,13.8896 -7.786593,-19.15081 -9.049283,-12.20601 c 0,0 18.729912,10.10153 17.888118,7.78659 -0.841794,-2.31493 -25.885159,-27.98964 -25.885159,-27.98964 0,0 20.413499,1.05224 19.361257,-1.26269 -1.052242,-2.31493 -17.467221,-18.30901 -17.467221,-18.30901 l 23.149329,8.62838 -3.788072,-15.78363 14.310494,12.62691 -6.523902,-19.36126 1.262691,-2.94628 17.467219,2.73583 -11.15377,-17.67767 v -3.15673 c 0,0 17.67767,14.3105 17.88812,13.25826 0.21045,-1.05225 1.26269,-18.94036 1.26269,-18.94036 l 8.62839,0.42089 -4.84031,-11.15377 11.36421,-10.94331 0.4209,-15.78364 8.20749,-23.99112 2.31493,-21.25529 c 0,0 9.25973,-21.04485 10.31197,-21.88664 1.05225,-0.8418 18.51947,-32.40906 18.51947,-32.40906 l 37.24937,-38.51207 23.57023,-20.20305 29.25233,-14.31049 26.51651,-8.207494 36.19713,-5.050763 c 0,0 20.8344,2.104485 21.67619,2.525381 0.84179,0.420897 35.77624,9.680626 37.88072,9.680626 2.10449,0 28.83144,20.4135 31.56727,20.8344 2.73583,0.4209 23.99112,17.88812 23.99112,17.88812 l 6.9448,11.99556 c 0,0 13.25825,21.46574 13.4687,22.30753 0.21045,0.8418 9.25973,7.7866 9.25973,7.7866 0,0 1.47314,9.47018 2.52538,10.52242 1.05225,1.05224 9.25974,9.04928 9.25974,9.04928 0,0 4.62986,16.20453 4.62986,17.04633 0,0.84179 7.57615,7.36569 7.57615,7.36569 0,0 6.103,2.31494 6.5239,3.15673 0.42089,0.84179 5.26121,7.36569 5.26121,7.36569 l 19.9926,6.73435 z"
         id="path16287" />
      <path
         style="fill:#303341;fill-opacity:1;fill-rule:evenodd;stroke:#000000;stroke-width:4.1;stroke-dasharray:none;stroke-opacity:1"
         id="path14952"
         sodipodi:type="arc"
         sodipodi:cx="224.37596"
         sodipodi:cy="225.50737"
         sodipodi:rx="16.810345"
         sodipodi:ry="19.216827"
         sodipodi:start="0"
         sodipodi:end="6.2824981"
         sodipodi:open="true"
         sodipodi:arc-type="arc"
         d="m 241.18631,225.50737 a 16.810345,19.216827 0 0 1 -16.80746,19.21683 16.810345,19.216827 0 0 1 -16.81323,-19.21023 16.810345,19.216827 0 0 1 16.80168,-19.22342 16.810345,19.216827 0 0 1 16.819,19.20361" />
      <path
         style="fill:#303341;fill-opacity:1;fill-rule:evenodd;stroke:#000000;stroke-width:4.1;stroke-dasharray:none;stroke-opacity:1"
         id="path14952-8"
         sodipodi:type="arc"
         sodipodi:cx="354.7619"
         sodipodi:cy="230.65477"
         sodipodi:rx="16.810345"
         sodipodi:ry="19.216827"
         sodipodi:start="0"
         sodipodi:end="6.2824981"
         sodipodi:open="true"
         sodipodi:arc-type="arc"
         d="m 371.57225,230.65477 a 16.810345,19.216827 0 0 1 -16.80746,19.21683 16.810345,19.216827 0 0 1 -16.81323,-19.21023 16.810345,19.216827 0 0 1 16.80168,-19.22342 16.810345,19.216827 0 0 1 16.819,19.20361" />
      <path
         style="opacity:0.871605;fill:#e3e4ea;fill-opacity:1;stroke:#000000;stroke-width:4.1;stroke-dasharray:none;stroke-opacity:1"
         d="m 250.29762,253.57143 c 21.13095,-18.75 26.19048,-20.2381 26.19048,-20.2381 l 4.16666,-0.29762 6.25,-0.29761 3.57143,3.57142 3.27381,5.35715 2.97619,7.14285 2.97619,5.95239 0.29762,3.86904 -26.48809,0.89286 h -6.25 l -10.11905,-2.97619 z"
         id="path16221" />
      <path
         style="opacity:0.871605;fill:#e1e3e9;fill-opacity:1;stroke:#000000;stroke-width:4.1;stroke-dasharray:none;stroke-opacity:1"
         d="m 248.80952,254.76191 0.29762,6.25 c 0,0 2.38096,3.2738 3.57143,3.57142 1.19048,0.29762 7.44048,5.95238 7.44048,5.95238 l 7.44047,1.78572 9.52381,1.48809 9.52381,-1.19047 4.16667,-2.38095 5.05952,-3.27381 3.86905,-4.16667 0.29762,-4.76191 -27.08333,2.08334 -6.54762,-0.29762 -6.25,-1.78572 z"
         id="path16223" />
      <path
         style="opacity:0.871605;fill:#727896;fill-opacity:1;stroke:#000000;stroke-width:4.1;stroke-dasharray:none;stroke-opacity:1"
         d="m 448.51191,146.13095 12.79761,20.2381 6.84524,10.11905 2.08334,4.46428 c 0,0 4.46428,1.4881 4.16666,2.67857 -0.29762,1.19048 -0.89285,4.46429 -0.89285,4.46429 l 3.57142,5.95238 7.7381,5.95238 c 0,0 2.97619,3.57143 2.67857,5.05952 -0.29762,1.4881 0.89286,8.92858 0.89286,8.92858 0,0 -0.29762,4.46428 0.59524,5.65476 0.89285,1.19047 1.48809,3.57143 3.27381,3.86904 1.78571,0.29762 4.46428,1.78572 4.46428,1.78572 l 1.78572,2.97619 h 4.46428 l 1.19048,6.54762 9.52381,2.67857 12.5,4.46429 5.05952,0.89285 -5.95238,-14.88095 -10.11905,-19.34524 -1.48809,-6.84524 -16.36905,-14.58333 v -4.7619 l -20.83333,-18.45238 -14.58334,-11.30953 -11.0119,-6.54762 z"
         id="path16225" />
      <path
         style="opacity:0.871605;fill:#16171e;fill-opacity:1;stroke:#000000;stroke-width:4.1;stroke-dasharray:none;stroke-opacity:1"
         d="m 275.89286,578.57143 -5.65476,2.97619 c 0,0 -2.97619,5.05952 -2.97619,6.54762 0,1.48809 0.29761,13.98809 0.29761,13.98809 0,0 2.38096,16.96429 2.08334,18.15477 -0.29762,1.19047 2.08333,24.40476 1.78571,26.19047 -0.29762,1.78572 -1.19047,15.47619 -1.19047,16.66667 0,1.19047 -1.19048,15.47619 -1.19048,16.66667 0,1.19047 -3.27381,7.44047 -3.27381,7.44047 l -14.58333,6.84524 -9.82143,5.95238 22.91666,-6.54762 11.60715,-3.27381 6.54762,0.59524 c 0,0 5.65476,13.09524 5.95238,14.28571 0.29762,1.19048 10.11905,22.32143 10.11905,22.32143 l 9.22619,7.44048 1.48809,-50.89286 1.4881,-5.05952 11.0119,-1.4881 13.69048,-6.84524 12.5,-7.44047 6.84524,-7.14286 3.57142,-2.97619 h -15.77381 l -11.30952,1.19048 -17.2619,-0.89286 -12.20239,-6.25 c 0,0 -11.30952,-9.82143 -12.79761,-10.71429 -1.4881,-0.89285 -4.76191,-8.92857 -4.76191,-8.92857 0,0 -0.89286,-12.5 -1.78571,-14.88095 -0.89286,-2.38095 0.59523,-29.7619 0.59523,-29.7619 l -3.57142,-3.27381 z"
         id="path16227" />
      <path
         style="opacity:0.871605;fill:#16171e;fill-opacity:1;stroke:#000000;stroke-width:4.1;stroke-dasharray:none;stroke-opacity:1"
         d="m 488.02995,548.42865 -2.94628,3.78808 2.31493,6.31345 3.78808,7.78659 c 0,0 4.20896,9.89108 4.20896,10.94332 0,1.05224 0.63135,12.62691 0.21045,14.31049 -0.42089,1.68359 -5.26121,10.94332 -4.84031,11.78512 0.4209,0.84179 -4.41942,9.25973 -4.20897,10.52242 0.21045,1.26269 0.84179,4.20897 0.84179,4.20897 l 8.83884,-0.21045 12.6269,4.62987 11.36422,9.25973 37.03893,45.03597 -10.10153,-50.92853 4.20897,2.94628 8.83884,2.94628 5.89255,5.05076 1.68359,-2.10448 -7.57614,-15.57319 -16.41498,-8.83883 -13.04781,-11.78512 -13.88959,-26.0956 -11.78512,-15.99409 -7.15524,-6.31345 z"
         id="path16229" />
    </g>
  </g>
</svg>
